Coordinates
version=1
nRows=8
nColumns=63
inDegrees=yes

Units are S.I. units (second, meters, Newtons, ...)
If the header above contains a line with 'inDegrees', this indicates whether rotational values are in degrees (yes) or radians (no).

endheader
time	pelvis_tilt	pelvis_list	pelvis_rotation	pelvis_tx	pelvis_ty	pelvis_tz	hip_flexion_r	hip_adduction_r	hip_rotation_r	knee_angle_r	knee_angle_r_beta	ankle_angle_r	subtalar_angle_r	mtp_angle_r	hip_flexion_l	hip_adduction_l	hip_rotation_l	knee_angle_l	knee_angle_l_beta	ankle_angle_l	subtalar_angle_l	mtp_angle_l	L5_S1_Flex_Ext	L5_S1_Lat_Bending	L5_S1_axial_rotation	L4_L5_Flex_Ext	L4_L5_Lat_Bending	L4_L5_axial_rotation	L3_L4_Flex_Ext	L3_L4_Lat_Bending	L3_L4_axial_rotation	L2_L3_Flex_Ext	L2_L3_Lat_Bending	L2_L3_axial_rotation	L1_L2_Flex_Ext	L1_L2_Lat_Bending	L1_L2_axial_rotation	L1_T12_Flex_Ext	L1_T12_Lat_Bending	L1_T12_axial_rotation	Abs_r3	Abs_r2	Abs_r1	Abs_t1	Abs_t2	neck_flexion	neck_bending	neck_rotation	arm_flex_r	arm_add_r	arm_rot_r	elbow_flex_r	pro_sup_r	wrist_flex_r	wrist_dev_r	arm_flex_l	arm_add_l	arm_rot_l	elbow_flex_l	pro_sup_l	wrist_flex_l	wrist_dev_l
5.101695	-2.660900	-12.165579	94.083388	0.092367	1.029258	0.465138	7.003431	-4.447762	-2.790946	7.997492	0.139583	32.200017	13.053089	0.000000	5.493546	2.844239	9.059891	7.018230	0.122491	27.138691	-6.705650	0.000000	0.347538	-0.388086	0.687327	0.645413	-0.516154	0.730285	0.570970	-0.943592	0.730285	0.397201	-0.943592	0.601411	0.322724	-0.791384	0.558453	0.198583	-0.601145	0.515495	2.482429	-4.390103	3.822706	0.000000	0.000000	24.329574	0.932637	8.879254	9.351457	-12.644596	60.740806	53.698456	70.117517	6.723367	0.867472	1.365802	-11.051600	39.067136	59.041665	67.228986	7.539763	12.127077
5.118644	-2.728027	-12.137719	94.051890	0.092162	1.029520	0.463431	6.848200	-4.508774	-2.850963	7.872029	0.137393	32.344107	13.345569	0.000000	5.241545	2.927344	9.288792	6.804153	0.118755	26.933991	-7.047248	0.000000	0.402888	-0.398574	0.702662	0.748203	-0.530104	0.746578	0.661905	-0.969094	0.746578	0.460461	-0.969094	0.614829	0.374122	-0.812773	0.570913	0.230210	-0.617392	0.526997	2.877788	-4.508752	3.907996	0.000000	0.000000	25.519350	0.669638	8.211038	9.310516	-12.607606	61.223079	53.354797	68.680665	7.161810	0.575100	1.331043	-11.045196	39.435572	58.574072	67.828702	7.921241	11.199100
5.135593	-2.770898	-12.108905	94.053168	0.091911	1.029870	0.461557	6.675062	-4.542737	-2.899730	7.740580	0.135099	32.486322	13.576887	0.000000	4.968084	2.982435	9.496998	6.565597	0.114591	26.723754	-7.309895	0.000000	0.468519	-0.408017	0.719740	0.870086	-0.542663	0.764724	0.769730	-0.992053	0.764724	0.535470	-0.992053	0.629773	0.435067	-0.832029	0.584789	0.267712	-0.632019	0.539805	3.346583	-4.615571	4.002979	0.000000	0.000000	26.537410	0.292107	7.396658	9.238582	-12.584177	61.761214	52.982354	67.120812	7.618423	0.328658	1.367359	-11.020229	39.947748	58.014400	68.635686	8.418871	10.413633
5.152542	-2.794470	-12.066537	94.058638	0.091654	1.030289	0.459519	6.480002	-4.554905	-2.939597	7.613455	0.132880	32.626900	13.791858	0.000000	4.662871	3.013544	9.659918	6.313829	0.110197	26.524731	-7.498717	0.000000	0.543362	-0.414743	0.732574	1.009078	-0.551608	0.778360	0.892690	-1.008406	0.778360	0.621009	-1.008406	0.641002	0.504566	-0.845744	0.595216	0.310477	-0.642437	0.549431	3.881183	-4.691657	4.074357	0.000000	0.000000	27.370595	-0.037133	6.730302	9.144934	-12.557871	62.345208	52.553361	65.678200	8.103198	0.017544	1.413062	-10.983696	40.488719	57.398229	69.591104	8.985156	9.750587
5.169492	-2.813186	-12.017387	94.082554	0.091377	1.030739	0.457361	6.273842	-4.564111	-3.012607	7.506710	0.131017	32.772842	14.002339	0.000000	4.335513	3.036312	9.831474	6.047293	0.105545	26.320211	-7.664598	0.000000	0.627539	-0.422988	0.749645	1.165402	-0.562574	0.796498	1.030984	-1.028452	0.796498	0.717214	-1.028452	0.655939	0.582733	-0.862556	0.609086	0.358576	-0.655208	0.562234	4.482447	-4.784921	4.169300	0.000000	0.000000	27.989189	-0.483181	5.867500	9.020680	-12.529752	62.987750	52.102990	64.163919	8.523202	-0.262659	1.544782	-10.968914	41.244844	56.716606	70.482886	9.607399	9.240956
5.186441	-2.812386	-11.965621	94.127594	0.091076	1.031195	0.455197	6.063868	-4.557363	-3.123413	7.412591	0.129374	32.898945	14.211308	0.000000	4.008118	3.037478	10.005019	5.784384	0.100957	26.124642	-7.803724	0.000000	0.717695	-0.429123	0.765080	1.332832	-0.570733	0.812898	1.179101	-1.043369	0.812898	0.820254	-1.043369	0.669445	0.666452	-0.875067	0.621628	0.410091	-0.664711	0.573810	5.126424	-4.854321	4.255147	0.000000	0.000000	28.441118	-0.978300	5.037997	8.831293	-12.484203	63.513193	51.647454	62.792171	8.996355	-0.429369	1.721346	-10.947961	42.103738	55.963003	71.364029	10.319662	8.743823
5.203390	-2.805351	-11.904037	94.180052	0.090754	1.031637	0.453037	5.843843	-4.548305	-3.261017	7.338135	0.128075	33.004649	14.403485	0.000000	3.674470	3.029799	10.171814	5.531266	0.096539	25.950020	-7.910408	0.000000	0.811044	-0.434906	0.783156	1.506190	-0.578424	0.832104	1.332464	-1.057429	0.832104	0.926942	-1.057429	0.685262	0.753135	-0.886859	0.636315	0.463431	-0.673669	0.587367	5.793206	-4.919738	4.355680	0.000000	0.000000	28.734029	-1.527079	4.180321	8.585776	-12.426122	63.957177	51.201432	61.561781	9.424865	-0.521949	1.938087	-10.926571	43.055993	55.178879	72.183788	11.053135	8.351917
5.220339	-2.794901	-11.855690	94.193276	0.090473	1.032012	0.450924	5.652298	-4.543932	-3.408809	7.292478	0.127278	33.100060	14.631581	0.000000	3.362132	3.011963	10.184566	5.291377	0.092352	25.828964	-7.849311	0.000000	0.909190	-0.440853	0.810457	1.688457	-0.586335	0.861110	1.493709	-1.071890	0.861110	1.039113	-1.071890	0.709150	0.844274	-0.898988	0.658496	0.519511	-0.682882	0.607843	6.494254	-4.987019	4.507518	0.000000	0.000000	28.882840	-2.130732	3.225246	8.287696	-12.354736	64.315339	50.783166	60.350929	9.822351	-0.441620	2.138934	-10.899751	43.995792	54.399366	72.687468	11.791564	8.150934
